<svg preserveAspectRatio="xMidYMid meet" data-bbox="34.838 -297.109 641.169 527.605"
  xmlns="http://www.w3.org/2000/svg" data-type="ugc" aria-hidden="true" aria-labelledby="svgcid--f2qcbv-hf44b5" viewBox="0 0 712 266">
  <path d="M399.236 27.852a8.397 8.397 0 0 0-3.965-5.789 8.377 8.377 0 0 0-6.967-.727c-1.802.598-43.876 15.168-59.479 47.602-13.975-17.534-36.547-25.918-37.686-26.318a8.352 8.352 0 0 0-11.061 6.288c-1.806 9.415-2.319 18.062-1.574 25.933a66.72 66.72 0 0 0 .457 3.761c1.439 9.494 4.838 17.766 10.229 24.713 10.819 13.928 26.439 18.264 33.884 19.57l-.023 69.256h16.763v-68.723c8.668-1.111 30.848-5.72 46.202-24.691 4.786-5.91 8.419-12.643 10.958-20.125.416-1.234.809-2.49 1.162-3.761 3.755-13.417 4.148-29.116 1.1-46.989m-77.064 77.695a45.91 45.91 0 0 1-4.64-1.542 40.298 40.298 0 0 1-2.541-1.101 38.39 38.39 0 0 1-5.236-2.993c-2.61-1.789-5.146-4.038-7.334-6.864-3.124-4.027-5.241-8.874-6.423-14.447a47.059 47.059 0 0 1-.636-3.76 56.62 56.62 0 0 1-.464-7.355c.008-1.496.062-3.041.173-4.615.536.29 1.085.595 1.644.914a85.91 85.91 0 0 1 3.47 2.076c3.556 2.24 7.316 4.978 10.739 8.197.269.254.528.521.792.783.294.288.595.569.886.871.9.92 1.758 1.891 2.582 2.889.184.217.373.432.549.652 1.966 2.467 3.662 5.146 4.926 8.037.316.723.599 1.455.853 2.186a27.498 27.498 0 0 1 1.138 4.441c.254 1.497.381 3.014.381 4.551-.004 2.306-.291 4.664-.859 7.08m57.862-29.363a50.792 50.792 0 0 1-2.386 5.058 48.268 48.268 0 0 1-2.899 4.653 45.236 45.236 0 0 1-7.48 8.189 49.22 49.22 0 0 1-6.328 4.596 54.634 54.634 0 0 1-4.288 2.365 59.69 59.69 0 0 1-8.208 3.317 64.518 64.518 0 0 1-6.913 1.805c-1.763-6.407-2.177-12.507-1.267-18.393.058-.381.135-.758.203-1.139a40.679 40.679 0 0 1 1.692-6.341c.207-.565.467-1.132.701-1.694.241-.596.459-1.193.73-1.783.312-.672.67-1.323 1.015-1.977.231-.445.438-.902.684-1.337 1.83-3.239 4.029-6.267 6.466-9.067a69.923 69.923 0 0 1 3.82-4.041 78.43 78.43 0 0 1 4.084-3.718 94.215 94.215 0 0 1 4.448-3.521 106.751 106.751 0 0 1 5.83-4.055 111.003 111.003 0 0 1 6.681-4.03 142.346 142.346 0 0 1 3.912-2.091c1.254-.64 2.455-1.229 3.584-1.769.326 3.717.463 7.29.41 10.717a80.763 80.763 0 0 1-.734 9.837 66.834 66.834 0 0 1-1.122 6.067 58.488 58.488 0 0 1-1.632 5.666c-.156.455-.334.892-.5 1.34-.165.447-.324.905-.503 1.346M82.495 116.298c1.459 0 3.024.194 4.479.441.92.155 1.781.333 2.544.508a49.67 49.67 0 0 1 2.814.731 1.823 1.823 0 0 0 2.308-1.266l3.979-14.482a78.237 78.237 0 0 0-8.043-2.205 62.781 62.781 0 0 0-2.528-.504c-3.5-.629-7.311-1.049-11.375-1.049-19.89 0-33.325 11.913-33.325 31.438 0 19.442 13.437 31.446 33.325 31.446 3.982 0 8.532-.682 12.299-1.418.886-.175 1.737-.349 2.521-.521a102.648 102.648 0 0 0 5.305-1.304 1.919 1.919 0 0 0 1.323-2.339l-3.982-14.485c-1.192.508-2.646.947-4.199 1.317-.815.193-1.652.356-2.534.496-1.586.248-3.23.427-4.91.427-9.86 0-15.411-5.021-15.411-13.619-.001-8.596 5.55-13.612 15.41-13.612M129.327 99.637h-19.595a1.901 1.901 0 0 0-1.897 1.887v56.779a1.9 1.9 0 0 0 1.897 1.893h19.595c1.042 0 1.89-.852 1.89-1.893v-56.779a1.894 1.894 0 0 0-1.89-1.887M195.437 99.637h-53.998a1.898 1.898 0 0 0-1.891 1.887v13.508c0 1.043.852 1.894 1.891 1.894h13.416a1.9 1.9 0 0 1 1.895 1.89v39.489c0 1.041.85 1.893 1.889 1.893h19.6a1.897 1.897 0 0 0 1.888-1.893v-39.489c0-1.035.856-1.89 1.897-1.89h13.414a1.9 1.9 0 0 0 1.894-1.894v-13.508a1.902 1.902 0 0 0-1.895-1.887M264.766 99.637h-19.779c-1.041 0-2.251.772-2.688 1.715l-8.532 18.429c-.437.941-1.144.941-1.571-.011l-8.301-18.405c-.43-.949-1.628-1.728-2.671-1.728h-19.86c-1.049 0-1.479.742-.967 1.649l20.09 35.669c.511.907.93 2.499.93 3.542v17.806c0 1.041.851 1.893 1.89 1.893h19.6a1.898 1.898 0 0 0 1.896-1.893v-17.806c0-1.043.414-2.635.924-3.542l20.009-35.669c.506-.907.069-1.649-.97-1.649M450.234 99.637H406.54a1.901 1.901 0 0 0-1.894 1.887v56.779a1.9 1.9 0 0 0 1.894 1.893h19.331a1.902 1.902 0 0 0 1.895-1.893v-14.31a1.9 1.9 0 0 1 1.89-1.896h17.536a1.896 1.896 0 0 0 1.893-1.89v-14.046c0-1.042-.85-1.891-1.893-1.891h-17.536a1.9 1.9 0 0 1-1.89-1.895v-3.648a1.9 1.9 0 0 1 1.89-1.895h20.581c1.039 0 1.894-.85 1.894-1.889v-13.424a1.903 1.903 0 0 0-1.897-1.882M501.992 101.423c-.346-.983-1.482-1.786-2.521-1.786h-24.075c-1.039 0-2.17.803-2.516 1.786l-19.896 56.985c-.341.98.225 1.789 1.268 1.789h19.688c1.043 0 2.111-.825 2.38-1.83l1.715-6.466c.267-1.007 1.337-1.83 2.375-1.83h14.139c1.036 0 2.114.821 2.39 1.825l1.777 6.475c.274 1.002 1.354 1.826 2.393 1.826h19.6c1.039 0 1.607-.809 1.268-1.789l-19.985-56.985zm-11.301 34.494h-6.426c-1.041 0-1.669-.821-1.394-1.823l4.106-14.981c.274-1.005.725-1.005 1.002 0l4.102 14.981c.28 1.002-.349 1.823-1.39 1.823M576.275 135.288c4.928-2.237 11.109-6.354 11.109-15.765 0-16.845-17.113-21.053-34.49-21.053-4.732 0-11.272.538-15.877.987-3.238.313-5.535.584-5.535.584-1.032.121-1.877 1.071-1.877 2.113V158.3c0 1.044.852 1.896 1.891 1.896h18.699a1.901 1.901 0 0 0 1.895-1.896v-17.009c6.986 0 12.907 17.117 12.907 17.117.341.98 1.47 1.786 2.513 1.786h21.309c-2.508-18.364-7.436-23.921-12.544-24.906m-22.214-8.151h-.809c-.686-.05-1.254-.941-1.254-1.979v-10.199a20.09 20.09 0 0 1 2.688-.18c3.943 0 10.037 1.069 10.037 6.089 0 5.376-6.814 6.269-10.662 6.269M664.768 99.637H645.08c-1.039 0-2.297.748-2.798 1.662l-8.945 16.473c-.492.912-1.304.912-1.796-.004l-8.866-16.469c-.493-.914-1.751-1.662-2.79-1.662H600.2a1.902 1.902 0 0 0-1.897 1.887v56.779c0 1.041.855 1.893 1.897 1.893h17.983s.013-.004.02-.004a1.896 1.896 0 0 0 1.87-1.889v-27.121c0-.455.1-.705.241-.803.186-.125.457.02.761.514l10.092 16.142c.55.881 1.126 1.604 1.271 1.604.148 0 .726-.723 1.278-1.603l10.166-16.145c.556-.88 1.009-.752 1.009.291v27.121c0 1.041.852 1.893 1.891 1.893h17.986a1.9 1.9 0 0 0 1.894-1.893v-56.779a1.901 1.901 0 0 0-1.894-1.887M270.557 63.307l-232.333.007c-1.813 0-3.284 1.515-3.284 3.386 0 1.868 1.471 3.386 3.284 3.386l232.26-.005a91.612 91.612 0 0 1 .073-6.774zM672.736 63.307l-264.488.008a94.517 94.517 0 0 1-1.059 6.771l265.547-.005c1.807 0 3.271-1.518 3.271-3.389 0-1.869-1.464-3.385-3.271-3.385z" fill="#C3D941"/>
  <path d="M38.327 192.902a3.388 3.388 0 1 1 0-6.773l634.294-.007a3.389 3.389 0 0 1 0 6.776l-634.294.004z" fill="#C3D941"/>
  <path d="M524.977 230.323h-12.841c-.213 0-.313-.097-.313-.29v-1.232c0-.195.102-.291.313-.291h1.836v-13.738h-1.836c-.213 0-.313-.096-.313-.291v-1.229c0-.196.102-.292.313-.292h12.841c.211 0 .317.096.317.292v3.892c0 .211-.106.313-.317.313h-1.305c-.191 0-.291-.104-.291-.313v-2.369h-7.305v5.996h6.12c.208 0 .312.101.312.293v1.229c0 .195-.104.291-.312.291h-6.12v5.928h7.281v-2.37c0-.193.104-.291.313-.291h1.304c.213 0 .318.098.318.291v3.895c.002.192-.104.286-.315.286zM534.12 230.323h-1.354c-.212 0-.313-.097-.313-.29v-5.658c0-.211.103-.316.313-.316h1.522c.194 0 .291.105.291.316v.506c0 .307.186.714.556 1.223.372.509.742.925 1.113 1.246.37.32.866.603 1.488.834a5.672 5.672 0 0 0 2.019.351c1.241 0 2.214-.259 2.916-.771.697-.517 1.049-1.233 1.049-2.153 0-.532-.194-.987-.592-1.367-.396-.379-.908-.682-1.535-.906a21.411 21.411 0 0 0-2.092-.629 35.083 35.083 0 0 1-2.297-.665 12.058 12.058 0 0 1-2.092-.896 4.172 4.172 0 0 1-1.536-1.451c-.396-.623-.594-1.352-.594-2.188 0-1.354.512-2.476 1.537-3.362 1.021-.887 2.396-1.33 4.123-1.33 2.174 0 3.772.639 4.789 1.909l-.051-1.497c0-.194.105-.291.315-.291h1.354c.194 0 .29.097.29.291v5.271c0 .194-.096.29-.29.29h-1.521c-.192 0-.292-.096-.292-.29v-.677c0-.661-.371-1.329-1.112-2.01-.741-.678-1.83-1.014-3.267-1.014-1.062 0-1.92.252-2.574.76-.651.51-.979 1.158-.979 1.949 0 .562.202 1.045.604 1.449.403.404.927.727 1.571.971.646.238 1.354.461 2.129.664.773.199 1.549.42 2.322.665.774.24 1.482.53 2.127.869.646.339 1.17.803 1.573 1.392.403.59.604 1.283.604 2.092 0 1.42-.51 2.588-1.524 3.506-1.016.921-2.532 1.38-4.548 1.38-1.482 0-2.707-.3-3.676-.896-.969-.594-1.668-1.239-2.105-1.935l.026 2.371c.004.193-.095.287-.287.287zM563.531 230.323h-5.637c-.209 0-.314-.105-.314-.314v-1.185c0-.209.105-.314.314-.314h1.841v-13.738h-4.574v2.565c0 .226-.111.338-.337.338h-1.354c-.229 0-.339-.112-.339-.338v-4.063c0-.209.109-.314.339-.314h14.58c.229 0 .342.105.342.314v4.063c0 .226-.112.338-.342.338h-1.376c-.209 0-.313-.112-.313-.338v-2.565h-4.525v13.738h1.695c.226 0 .337.105.337.314v1.185c0 .209-.111.314-.337.314zM576.48 228.546c.219.217.328.488.328.81a1.1 1.1 0 0 1-.328.812 1.094 1.094 0 0 1-.811.324c-.32 0-.597-.107-.82-.324a1.083 1.083 0 0 1-.339-.812c0-.32.112-.593.339-.81.225-.218.5-.327.82-.327.325 0 .599.109.811.327zM608.057 230.323h-12.093c-.209 0-.315-.097-.315-.29v-.749c0-.97.189-1.839.571-2.611.376-.774.87-1.409 1.476-1.899a13.696 13.696 0 0 1 1.996-1.344 43.254 43.254 0 0 1 2.174-1.125 23.236 23.236 0 0 0 2.01-1.074c1.354-.838 2.032-1.879 2.032-3.123 0-.932-.361-1.728-1.076-2.379-.718-.654-1.691-.98-2.916-.98-1.224 0-2.185.331-2.879.991-.691.661-1.039 1.502-1.039 2.516 0 .194-.105.291-.315.291h-1.57c-.195 0-.291-.097-.291-.291 0-1.499.528-2.78 1.584-3.846 1.057-1.062 2.564-1.597 4.523-1.597 1.96 0 3.477.504 4.548 1.514 1.072 1.007 1.605 2.222 1.605 3.641 0 .967-.238 1.837-.726 2.611a5.775 5.775 0 0 1-1.813 1.849c-.724.461-1.517.92-2.369 1.381-.854.457-1.651.878-2.396 1.259a6.21 6.21 0 0 0-1.897 1.463c-.524.596-.812 1.256-.86 1.981h8.226v-1.741c0-.191.096-.291.291-.291h1.521c.209 0 .314.1.314.291v3.266c-.002.192-.107.286-.316.286zM627.176 228.038c-1.231 1.636-2.945 2.454-5.141 2.454-2.191 0-3.904-.814-5.139-2.442-1.23-1.629-1.852-3.763-1.852-6.409 0-2.642.629-4.776 1.889-6.396 1.258-1.62 2.957-2.432 5.102-2.432 2.146 0 3.846.812 5.104 2.432s1.892 3.749 1.892 6.385c-.001 2.636-.622 4.772-1.855 6.408zm-8.622-1.319c.837 1.21 1.999 1.814 3.481 1.814s2.645-.6 3.486-1.801c.836-1.201 1.257-2.892 1.257-5.066 0-2.178-.425-3.879-1.271-5.105-.848-1.223-2.003-1.838-3.473-1.838-1.465 0-2.624.615-3.468 1.838-.848 1.228-1.271 2.925-1.271 5.093.001 2.168.419 3.856 1.259 5.065zM645.906 230.323h-9.551c-.213 0-.314-.097-.314-.29v-1.232c0-.195.104-.291.314-.291h3.914v-13.281l-3.334 2.396c-.164.112-.3.089-.41-.071l-.681-.993c-.049-.063-.071-.127-.071-.19s.05-.138.146-.218l4.21-3.022c.162-.114.305-.171.434-.171h1.526c.19 0 .287.096.287.292v15.26h3.53c.195 0 .292.097.292.291v1.232c0 .194-.094.288-.292.288zM665.426 230.323h-6.963c-.195 0-.291-.097-.291-.29v-1.232c0-.195.096-.291.291-.291h2.779v-3.629h-8.053c-.193 0-.289-.104-.289-.312v-.971c0-.223.102-.481.312-.771l7.547-9.313c.291-.369.589-.555.896-.555h1.377c.209 0 .313.096.313.292v9.938h1.91c.212 0 .313.105.313.313v1.065c0 .209-.103.312-.313.312h-1.91v3.629h2.078c.213 0 .314.096.314.291v1.232c.003.198-.098.292-.311.292zm-4.184-7.135v-7.616l-6.168 7.616h6.168zM46.177 230.323h-1.354c-.211 0-.314-.097-.314-.29v-5.658c0-.211.104-.316.314-.316h1.521c.194 0 .292.105.292.316v.506c0 .307.187.714.556 1.223.371.509.741.925 1.112 1.246.371.32.867.603 1.485.834a5.697 5.697 0 0 0 2.022.351c1.241 0 2.21-.259 2.916-.771.698-.517 1.049-1.233 1.049-2.153 0-.532-.197-.987-.593-1.367-.394-.379-.906-.682-1.535-.906a21.411 21.411 0 0 0-2.092-.629 35.083 35.083 0 0 1-2.297-.665 12.092 12.092 0 0 1-2.092-.896 4.174 4.174 0 0 1-1.534-1.451c-.397-.623-.594-1.352-.594-2.188 0-1.354.511-2.476 1.536-3.362 1.021-.887 2.396-1.33 4.121-1.33 2.176 0 3.774.639 4.79 1.909l-.049-1.497c0-.194.106-.291.314-.291h1.354c.195 0 .291.097.291.291v5.271c0 .194-.096.29-.291.29h-1.521c-.194 0-.292-.096-.292-.29v-.677c0-.661-.37-1.329-1.112-2.01-.74-.678-1.83-1.014-3.264-1.014-1.064 0-1.921.252-2.577.76-.651.51-.979 1.158-.979 1.949 0 .562.202 1.045.605 1.449.403.404.926.727 1.571.971a23.11 23.11 0 0 0 2.127.664c.775.199 1.548.42 2.324.665.771.24 1.481.53 2.128.869a4.325 4.325 0 0 1 1.572 1.392c.399.59.603 1.283.603 2.092 0 1.42-.506 2.588-1.522 3.506-1.017.921-2.532 1.38-4.548 1.38-1.481 0-2.707-.3-3.677-.896-.966-.594-1.667-1.239-2.104-1.935l.024 2.371c.003.193-.093.287-.286.287zM81.393 230.323h-5.468c-.194 0-.29-.097-.29-.29v-1.232c0-.195.096-.291.29-.291h1.695l-1.572-4.183H69.3l-1.573 4.183h1.692c.195 0 .292.096.292.291v1.232c0 .193-.097.29-.292.29h-5.44c-.196 0-.291-.097-.291-.29v-1.232c0-.195.095-.291.291-.291h1.618l5.202-13.738h-1.307c-.209 0-.315-.096-.315-.291v-1.229c0-.196.106-.292.315-.292h3.289c.388 0 .682.08.884.242.201.16.374.427.521.798l5.562 14.512h1.645c.191 0 .288.097.288.291v1.232c0 .194-.097.288-.288.288zm-6-7.666-2.685-7.185h-.073l-2.706 7.185h5.464zM102.407 230.323h-1.304c-.307 0-.549-.061-.724-.183-.18-.119-.348-.31-.511-.565L92.88 218.64l-1.209-2.031h-.049v11.899h1.862c.208 0 .315.097.315.291v1.232c0 .194-.107.29-.315.29H87.68c-.207 0-.312-.096-.312-.29V228.8c0-.194.105-.291.312-.291h1.838v-13.737H87.68c-.207 0-.312-.097-.312-.291v-1.23c0-.196.105-.292.312-.292h3.386c.467 0 .882.272 1.235.821l6.891 10.789 1.379 2.346h.051v-12.143h-1.864c-.193 0-.291-.097-.291-.291v-1.23c0-.196.098-.292.291-.292h5.828c.196 0 .291.096.291.292v1.23c0 .194-.095.291-.291.291h-1.861v15.262c-.001.195-.106.289-.318.289zM137.987 230.323h-13.231c-.208 0-.313-.097-.313-.29v-1.232c0-.195.105-.291.313-.291h1.84v-13.738h-1.84c-.208 0-.313-.096-.313-.291v-1.229c0-.196.105-.292.313-.292h5.782c.209 0 .314.105.314.314v1.186c0 .21-.105.312-.314.312h-1.84v13.738h7.69v-2.369c0-.194.105-.291.314-.291h1.306c.192 0 .292.097.292.291v3.868c.002.209-.104.314-.313.314zM156.077 224.035v-9.264h-1.86c-.194 0-.29-.097-.29-.291v-1.23c0-.196.096-.292.29-.292h5.828c.192 0 .292.096.292.292v1.23c0 .194-.1.291-.292.291h-1.863v9.045c0 2.179-.567 3.832-1.705 4.972-1.136 1.135-2.742 1.704-4.812 1.704-2.072 0-3.682-.569-4.824-1.704-1.145-1.14-1.719-2.793-1.719-4.972v-9.045h-1.838c-.209 0-.314-.097-.314-.291v-1.23c0-.196.105-.292.314-.292h5.804c.212 0 .315.096.315.292v1.23c0 .194-.104.291-.315.291h-1.862v9.117c0 3.096 1.484 4.645 4.451 4.645 1.517 0 2.627-.399 3.34-1.197.706-.799 1.06-1.898 1.06-3.301zM172.935 230.323h-5.804c-.209 0-.314-.097-.314-.29v-1.232c0-.195.105-.291.314-.291h1.838v-13.738h-1.838c-.209 0-.314-.096-.314-.291v-1.229c0-.196.105-.292.314-.292h5.804c.21 0 .315.096.315.292v1.229c0 .195-.105.291-.315.291h-1.862v13.738h1.862c.21 0 .315.096.315.291v1.232c0 .196-.105.29-.315.29zM182.078 230.323h-1.355c-.208 0-.313-.097-.313-.29v-5.658c0-.211.106-.316.313-.316h1.526c.192 0 .291.105.291.316v.506c0 .307.181.714.554 1.223s.741.925 1.114 1.246c.37.32.864.603 1.486.834a5.683 5.683 0 0 0 2.021.351c1.24 0 2.212-.259 2.913-.771.702-.517 1.052-1.233 1.052-2.153 0-.532-.197-.987-.591-1.367-.396-.379-.907-.682-1.536-.906a21.665 21.665 0 0 0-2.092-.629 35.554 35.554 0 0 1-2.301-.665 12.192 12.192 0 0 1-2.092-.896 4.216 4.216 0 0 1-1.535-1.451c-.395-.623-.592-1.352-.592-2.188 0-1.354.513-2.476 1.536-3.362 1.021-.887 2.398-1.33 4.123-1.33 2.178 0 3.772.639 4.788 1.909l-.047-1.497c0-.194.104-.291.315-.291h1.354c.192 0 .291.097.291.291v5.271c0 .194-.099.29-.291.29h-1.521c-.195 0-.291-.096-.291-.29v-.677c0-.661-.371-1.329-1.112-2.01-.741-.678-1.83-1.014-3.267-1.014-1.064 0-1.922.252-2.576.76-.652.51-.979 1.158-.979 1.949 0 .562.202 1.045.604 1.449.404.404.93.727 1.575.971a22.8 22.8 0 0 0 2.126.664c.772.199 1.547.42 2.322.665.773.24 1.482.53 2.127.869a4.293 4.293 0 0 1 1.572 1.392c.404.59.605 1.283.605 2.092 0 1.42-.509 2.588-1.522 3.506-1.016.921-2.533 1.38-4.548 1.38-1.485 0-2.709-.3-3.676-.896-.97-.594-1.668-1.239-2.104-1.935l.023 2.371c0 .193-.097.287-.29.287zM230.594 221.557c0 2.651-.791 4.806-2.38 6.457-1.589 1.652-3.587 2.479-5.999 2.479-2.41 0-4.423-.834-6.034-2.502-1.611-1.67-2.42-3.822-2.42-6.459 0-2.636.831-4.747 2.493-6.336 1.661-1.589 3.643-2.384 5.949-2.384s4.279.795 5.925 2.384c1.644 1.588 2.466 3.707 2.466 6.361zm-12.71 5.127c1.235 1.233 2.676 1.851 4.319 1.851 1.646 0 3.08-.616 4.306-1.851 1.227-1.231 1.838-2.928 1.838-5.08 0-2.15-.626-3.836-1.874-5.055-1.251-1.217-2.674-1.826-4.27-1.826-1.596 0-3.024.609-4.281 1.826-1.26 1.219-1.887 2.903-1.887 5.055 0 2.152.616 3.847 1.849 5.08zM244.768 230.323h-7.811c-.212 0-.314-.097-.314-.29v-1.232c0-.195.103-.291.314-.291h1.836v-13.738h-1.836c-.212 0-.314-.096-.314-.291v-1.229c0-.196.103-.292.314-.292h7.787c1.612 0 2.866.427 3.761 1.281.896.854 1.343 1.976 1.343 3.361 0 1.631-.719 2.847-2.152 3.653 2.062.597 3.096 1.968 3.096 4.11 0 1.516-.505 2.721-1.512 3.615-1.009.897-2.514 1.343-4.512 1.343zm-3.87-9.746h3.7c.838-.015 1.568-.258 2.189-.726.62-.471.932-1.203.932-2.203 0-.998-.328-1.729-.979-2.188-.654-.459-1.457-.689-2.406-.689h-3.436v5.806zm0 7.933h3.7c1.273 0 2.27-.27 2.986-.811.717-.54 1.077-1.374 1.077-2.502 0-2.016-1.308-3.025-3.918-3.025h-3.846l.001 6.338zM263.103 230.323h-5.806c-.209 0-.314-.097-.314-.29v-1.232c0-.195.105-.291.314-.291h1.837v-13.738h-1.837c-.209 0-.314-.096-.314-.291v-1.229c0-.196.105-.292.314-.292h5.806c.207 0 .313.096.313.292v1.229c0 .195-.106.291-.313.291h-1.864v13.738h1.864c.207 0 .313.096.313.291v1.232c0 .196-.106.29-.313.29zM272.242 230.323h-1.354c-.21 0-.314-.097-.314-.29v-5.658c0-.211.104-.316.314-.316h1.522c.194 0 .292.105.292.316v.506c0 .307.184.714.554 1.223.371.509.742.925 1.114 1.246.37.32.865.603 1.487.834a5.68 5.68 0 0 0 2.019.351c1.241 0 2.214-.259 2.916-.771.7-.517 1.052-1.233 1.052-2.153 0-.532-.198-.987-.594-1.367-.396-.379-.906-.682-1.533-.906a21.627 21.627 0 0 0-2.094-.629 35.263 35.263 0 0 1-2.297-.665 12.136 12.136 0 0 1-2.093-.896 4.177 4.177 0 0 1-1.535-1.451c-.396-.623-.593-1.352-.593-2.188 0-1.354.512-2.476 1.535-3.362s2.398-1.33 4.123-1.33c2.176 0 3.773.639 4.79 1.909l-.048-1.497c0-.194.104-.291.312-.291h1.354c.192 0 .291.097.291.291v5.271c0 .194-.099.29-.291.29h-1.521c-.194 0-.292-.096-.292-.29v-.677c0-.661-.37-1.329-1.111-2.01-.744-.678-1.83-1.014-3.266-1.014-1.065 0-1.922.252-2.578.76-.651.51-.979 1.158-.979 1.949 0 .562.201 1.045.605 1.449.403.404.926.727 1.572.971a23.11 23.11 0 0 0 2.127.664c.775.199 1.549.42 2.323.665.774.24 1.482.53 2.128.869s1.17.803 1.572 1.392c.402.59.605 1.283.605 2.092 0 1.42-.509 2.588-1.523 3.506-1.018.921-2.533 1.38-4.549 1.38-1.482 0-2.708-.3-3.676-.896-.968-.594-1.667-1.239-2.104-1.935l.023 2.371c.006.193-.089.287-.285.287zM297.977 230.323h-6.311c-.209 0-.314-.097-.314-.29v-1.232c0-.195.105-.291.314-.291h1.836v-13.738h-1.836c-.209 0-.314-.096-.314-.291v-1.229c0-.196.105-.292.314-.292h7.449c1.708 0 3.106.496 4.196 1.486 1.089.992 1.632 2.331 1.632 4.015 0 1.687-.531 2.991-1.595 3.922-1.065.927-2.564 1.392-4.5 1.392h-3.241v4.737h2.369c.195 0 .291.097.291.291v1.232c.001.194-.095.288-.29.288zm-2.37-8.27h3.144c2.71 0 4.064-1.193 4.064-3.58 0-1.242-.384-2.168-1.148-2.781-.767-.612-1.729-.92-2.892-.92h-3.168v7.281zM328.55 221.557c0 2.651-.795 4.806-2.383 6.457-1.589 1.652-3.588 2.479-5.999 2.479-2.41 0-4.424-.834-6.035-2.502-1.609-1.67-2.417-3.822-2.417-6.459 0-2.636.831-4.747 2.49-6.336 1.661-1.589 3.646-2.384 5.95-2.384 2.308 0 4.281.795 5.926 2.384 1.645 1.588 2.468 3.707 2.468 6.361zm-12.71 5.127c1.232 1.233 2.672 1.851 4.316 1.851 1.646 0 3.08-.616 4.307-1.851 1.225-1.231 1.836-2.928 1.836-5.08 0-2.15-.626-3.836-1.873-5.055-1.251-1.217-2.674-1.826-4.27-1.826s-3.023.609-4.28 1.826c-1.259 1.219-1.887 2.903-1.887 5.055 0 2.152.616 3.847 1.851 5.08z" stroke-miterlimit="10" stroke-width=".25" stroke="#C3D941" fill="#C3D941"/>
</svg>